PathFileType	4	(X/Y/Z)	S:\OneDrive - The University of Tokyo\ìåëÂéˆã∆\ÉoÉCÉÅÉJ\ë™íË\hirabayashi_2\Trimmed\Trimmed_Trimmed_ShSs3-51P.trc
DataRate	CameraRate	NumFrames	NumMarkers	Units	OrigDataRate	OrigDataStartFrame	OrigNumFrames
200.00	200.00	      4	51	mm	200.00	430	      1718
Frame#	Time	handRI			handRO			wrRI			wrRO			elbRI			elbRO			shRF			shRU			shRB			handLI			handLO			wrLI			wrLO			elbLI			elbLO			shLF			shLU			shLB			toeR			baRI			baRO			heelR			anRI			anRO			knRI			knRO			troR			toeL			baLI			baLO			heelL			anLI			anLO			knLI			knLO			troL			head			earR			earL			clav			c7			ribR			ribL			xiph			t12			ASISR			ASISL			PSISR			PSISL			ThR			ThL			
		X1	Y1	Z1	X2	Y2	Z2	X3	Y3	Z3	X4	Y4	Z4	X5	Y5	Z5	X6	Y6	Z6	X7	Y7	Z7	X8	Y8	Z8	X9	Y9	Z9	X10	Y10	Z10	X11	Y11	Z11	X12	Y12	Z12	X13	Y13	Z13	X14	Y14	Z14	X15	Y15	Z15	X16	Y16	Z16	X17	Y17	Z17	X18	Y18	Z18	X19	Y19	Z19	X20	Y20	Z20	X21	Y21	Z21	X22	Y22	Z22	X23	Y23	Z23	X24	Y24	Z24	X25	Y25	Z25	X26	Y26	Z26	X27	Y27	Z27	X28	Y28	Z28	X29	Y29	Z29	X30	Y30	Z30	X31	Y31	Z31	X32	Y32	Z32	X33	Y33	Z33	X34	Y34	Z34	X35	Y35	Z35	X36	Y36	Z36	X37	Y37	Z37	X38	Y38	Z38	X39	Y39	Z39	X40	Y40	Z40	X41	Y41	Z41	X42	Y42	Z42	X43	Y43	Z43	X44	Y44	Z44	X45	Y45	Z45	X46	Y46	Z46	X47	Y47	Z47	X48	Y48	Z48	X49	Y49	Z49	X50	Y50	Z50	X51	Y51	Z51	

430	2.145	-576.94659	1567.66406	1610.35303	-602.53485	1660.67810	1630.36584	-617.64197	1567.63062	1672.83740	-675.63812	1631.46460	1653.67395	-727.38788	1692.60242	1899.85962	-648.30688	1699.50623	1892.48657	-735.37714	1918.31482	2079.33765	-707.81390	1889.94934	2185.89111	-726.18939	1770.10559	2188.63403	-1251.73169	1635.43384	1609.18799	-1211.56274	1725.87939	1648.45703	-1209.56580	1637.92627	1680.31592	-1149.98181	1686.85400	1652.43640	-1080.88977	1732.70776	1902.01648	-1157.03357	1769.66711	1894.60779	-1026.33167	1954.39893	2085.14502	-1045.99231	1928.53906	2196.25635	-1068.50879	1818.65295	2188.20068	-957.73376	505.18036	1297.02307	-995.42334	581.51544	1318.69141	-916.69714	553.32971	1369.98096	-990.16083	650.07300	1517.73596	-1004.44403	697.30243	1423.77722	-919.60266	651.63147	1466.44568	-929.76147	1060.54187	1484.02454	-822.64307	1043.67151	1520.15930	-762.71448	1417.69617	1732.26208	-1058.81958	528.51184	1297.90808	-1015.32031	590.54926	1324.97363	-1106.05859	574.66895	1363.84204	-1031.42554	662.33618	1517.55066	-1002.04956	699.46594	1422.37732	-1099.34338	664.42053	1455.96973	-1003.57538	1084.83948	1496.49878	-1113.05078	1088.86060	1525.20642	-1095.78381	1450.08679	1737.35205	-892.42047	1961.74585	2424.60571	-787.28729	1965.70898	2271.83252	-962.16223	1983.16235	2268.84204	-870.89343	1923.02124	2060.31470	-889.16632	1877.27844	2222.42285	-745.10547	1653.40454	1865.42175	-1074.37354	1672.69128	1854.22498	-884.28644	1811.50842	1876.22998	-908.94769	1579.93811	1941.87634	-779.09546	1558.88257	1685.86011	-1063.32239	1598.97119	1701.70947	-860.87982	1495.40625	1856.73962	-963.42651	1504.39905	1860.28381	-814.57288	1233.59558	1678.66260	-1094.66882	1263.92371	1678.61487	
431	2.150	-577.56720	1567.90747	1612.14697	-600.45886	1661.03271	1633.06689	-618.27002	1567.94580	1675.01123	-676.09613	1631.54199	1655.71606	-726.83209	1693.57617	1901.56714	-648.38690	1701.34033	1894.04553	-735.35199	1923.01782	2077.64771	-706.62469	1896.72595	2184.18799	-725.24945	1776.94531	2190.17578	-1250.88599	1635.22437	1611.26819	-1210.84253	1725.97729	1650.40405	-1208.02710	1638.46204	1681.88049	-1149.20410	1686.89758	1654.24146	-1079.98523	1735.45313	1903.75183	-1155.30835	1773.17712	1895.50354	-1026.10535	1958.84583	2083.60840	-1045.39600	1935.34741	2195.59399	-1067.73352	1825.00159	2189.55957	-958.25647	486.89606	1344.35730	-996.17432	564.09515	1363.00330	-917.51550	537.71259	1415.68201	-991.64203	639.74292	1559.76709	-1004.95160	682.76300	1463.52014	-921.06610	639.42126	1508.59692	-929.18353	1048.88843	1508.45117	-822.49225	1032.87292	1545.94763	-762.87305	1414.06494	1744.90979	-1059.92444	510.09964	1344.31592	-1014.86426	576.78949	1370.90430	-1107.27112	558.47394	1408.53931	-1032.75793	651.64038	1559.26453	-1001.05927	684.12653	1460.48730	-1100.23694	651.66144	1497.53540	-1004.85822	1072.59705	1522.26746	-1114.41589	1078.40540	1549.94775	-1094.85168	1446.63428	1748.90527	-891.70435	1970.65051	2423.10889	-786.67053	1974.04919	2270.18701	-961.80890	1991.07068	2267.61304	-870.97809	1926.45947	2059.21851	-888.67566	1883.95166	2222.37793	-745.23016	1653.29016	1870.72681	-1074.70911	1671.71472	1859.91272	-884.33453	1811.21667	1877.95642	-908.90991	1581.74097	1949.17798	-779.13220	1553.44934	1693.97595	-1063.98645	1594.20850	1708.68542	-860.75702	1495.43164	1866.97681	-963.31573	1503.90613	1870.76318	-814.51953	1228.22046	1697.86340	-1095.13501	1257.96436	1697.16016	
432	2.155	-577.25964	1568.02625	1615.29297	-600.63293	1661.28186	1635.11084	-618.88379	1568.17590	1677.06238	-676.37988	1631.81946	1657.62976	-727.10687	1696.78430	1903.07361	-648.41370	1702.84265	1895.41455	-734.59546	1926.61206	2075.78613	-705.84589	1902.90515	2183.10889	-724.39319	1783.98157	2191.91724	-1249.91309	1635.35339	1613.26843	-1209.88513	1726.04053	1652.51355	-1207.17041	1638.83313	1684.42334	-1148.35974	1687.01733	1656.08936	-1079.53430	1737.49133	1905.55615	-1154.51062	1774.91211	1896.80530	-1025.80505	1963.10791	2082.40747	-1045.67603	1942.15027	2194.35278	-1067.09436	1831.82532	2191.13989	-958.43311	470.58859	1391.85815	-996.98511	548.32794	1407.52258	-918.24829	523.55695	1461.41846	-993.56073	633.23419	1602.16211	-1006.41248	671.38916	1503.34570	-922.16241	628.87817	1550.53418	-929.30792	1037.47803	1533.16516	-821.82306	1023.05280	1569.31970	-763.25269	1410.66406	1757.89319	-1061.15698	493.70496	1390.83362	-1015.98352	561.31488	1415.49170	-1108.34473	544.32214	1453.11365	-1034.29834	644.08221	1601.29578	-999.12909	670.09180	1499.45679	-1100.57007	640.54285	1538.97632	-1006.21625	1063.44531	1544.50293	-1115.36450	1068.94739	1573.43616	-1095.69080	1442.91187	1761.75061	-890.84674	1979.46606	2422.24756	-785.98047	1981.93665	2269.72241	-961.29944	1998.64734	2266.40625	-870.71307	1930.10400	2058.43848	-887.99603	1890.88513	2222.57373	-745.51929	1653.10669	1876.15125	-1075.01306	1670.82178	1865.39185	-884.53082	1810.92480	1880.08643	-908.28357	1582.82080	1956.96155	-779.83667	1548.60437	1702.70056	-1063.31750	1587.52197	1718.54993	-860.61566	1495.38489	1877.64197	-963.47784	1505.66492	1881.17456	-814.69244	1223.36340	1716.72083	-1095.19751	1252.95862	1715.72705	
433	2.160	-577.99023	1568.21265	1616.79773	-600.58813	1660.65332	1637.49182	-619.53442	1568.67114	1679.08130	-676.02570	1630.59265	1659.88123	-727.74683	1698.82581	1905.23254	-648.61389	1704.40112	1897.18176	-734.40277	1930.44238	2074.60815	-704.60193	1909.11438	2181.66431	-723.46802	1790.23999	2193.63501	-1248.93408	1635.50598	1615.42273	-1209.20154	1726.23999	1654.53345	-1206.47473	1639.26660	1686.44861	-1147.66370	1687.43628	1658.21106	-1078.44690	1740.45508	1907.42236	-1154.17273	1776.97314	1898.11023	-1025.44849	1967.08521	2081.46973	-1044.96167	1947.68860	2194.27051	-1066.17786	1837.59729	2192.96533	-958.09912	457.04028	1439.48438	-997.83221	534.14398	1452.14526	-919.35175	511.37952	1507.25159	-994.90356	622.95654	1642.40173	-1006.58282	659.89191	1543.16064	-923.77606	620.47211	1591.32275	-927.38373	1027.93481	1557.37561	-821.33527	1013.33783	1595.43945	-763.36987	1407.07397	1771.36755	-1063.61316	478.14200	1435.19727	-1017.25385	547.15820	1459.50659	-1109.40967	531.86218	1497.44788	-1034.94995	634.94727	1642.45093	-1001.23181	659.85138	1541.44373	-1101.30261	631.07037	1579.97229	-1007.08582	1054.69531	1569.31763	-1116.08252	1060.77429	1598.32947	-1095.71350	1440.02466	1774.92920	-890.27600	1987.97852	2421.24585	-785.36902	1990.02234	2268.42627	-960.72711	2006.73657	2265.34399	-870.69550	1933.84924	2058.14453	-887.59375	1897.08472	2222.99756	-745.33972	1652.25305	1882.38843	-1074.85938	1669.94836	1871.55518	-884.78162	1810.61890	1882.46631	-907.85614	1584.09448	1965.06787	-779.93781	1543.43469	1711.91467	-1063.02124	1583.38123	1727.19153	-860.32330	1495.27881	1888.35461	-963.27228	1504.09766	1892.24390	-814.67798	1218.67175	1736.31091	-1095.38025	1248.80933	1734.61743	
